<svg width="300" height="52" viewBox="0 0 300 52" fill="none" xmlns="http://www.w3.org/2000/svg">
<path d="M5.01465 4.61816V22.3916H12.8076C14.1748 22.3916 15.3141 22.3916 16.2256 22.3916C17.1598 22.3688 18.1624 22.3346 19.2334 22.2891C20.3271 22.2207 21.2158 22.141 21.8994 22.0498C22.6058 21.9587 23.3577 21.8333 24.1553 21.6738C24.9528 21.5143 25.5908 21.3206 26.0693 21.0928C26.5706 20.8649 27.0719 20.5915 27.5732 20.2725C28.0745 19.9307 28.4733 19.5433 28.7695 19.1104C29.0658 18.6774 29.3278 18.1761 29.5557 17.6064C29.8063 17.0368 29.9772 16.4102 30.0684 15.7266C30.1823 15.0202 30.2393 14.2454 30.2393 13.4023C30.2393 12.4681 30.1481 11.625 29.9658 10.873C29.8063 10.0983 29.5785 9.4375 29.2822 8.89062C29.0088 8.32096 28.6214 7.81966 28.1201 7.38672C27.6416 6.93099 27.1517 6.55501 26.6504 6.25879C26.1719 5.96257 25.5566 5.71191 24.8047 5.50684C24.0755 5.27897 23.3919 5.11947 22.7539 5.02832C22.1387 4.91439 21.3525 4.82324 20.3955 4.75488C19.4613 4.68652 18.641 4.65234 17.9346 4.65234C17.251 4.62956 16.3737 4.61816 15.3027 4.61816H5.01465ZM5.04883 26.0488V47.3428H15.7812C17.0801 47.3428 18.1738 47.3314 19.0625 47.3086C19.9512 47.263 20.988 47.1719 22.1729 47.0352C23.3805 46.8757 24.3831 46.6592 25.1807 46.3857C25.9782 46.0895 26.8099 45.6908 27.6758 45.1895C28.5417 44.6654 29.2367 44.0387 29.7607 43.3096C30.2848 42.5804 30.7064 41.6689 31.0254 40.5752C31.3672 39.4587 31.5381 38.2054 31.5381 36.8154C31.5381 35.6761 31.4355 34.6507 31.2305 33.7393C31.0482 32.805 30.8089 31.9847 30.5127 31.2783C30.2165 30.5719 29.7949 29.9567 29.248 29.4326C28.7012 28.8857 28.1657 28.43 27.6416 28.0654C27.1175 27.7008 26.4453 27.3932 25.625 27.1426C24.8047 26.8691 24.0413 26.6641 23.335 26.5273C22.6514 26.3906 21.7969 26.2881 20.7715 26.2197C19.7461 26.1514 18.8346 26.1058 18.0371 26.083C17.2624 26.0602 16.2939 26.0488 15.1318 26.0488H5.04883ZM0.0585938 51V0.960938H15.0635C16.6585 0.960938 18.1055 1.00651 19.4043 1.09766C20.7259 1.16602 22.0931 1.31413 23.5059 1.54199C24.9186 1.76986 26.1605 2.07747 27.2314 2.46484C28.3252 2.85221 29.3734 3.36491 30.376 4.00293C31.3786 4.64095 32.1989 5.3929 32.8369 6.25879C33.4977 7.12467 34.0218 8.18424 34.4092 9.4375C34.7965 10.668 34.9902 12.0465 34.9902 13.5732C34.9902 19.4521 31.9027 22.9271 25.7275 23.998C29.305 24.7044 31.9938 26.1855 33.7939 28.4414C35.5941 30.6973 36.4941 33.5114 36.4941 36.8838C36.4941 39.6865 36.0612 41.9993 35.1953 43.8223C34.3294 45.6452 32.9281 47.0921 30.9912 48.1631C29.0544 49.2113 26.7301 49.9518 24.0186 50.3848C21.307 50.7949 17.9118 51 13.833 51H0.0585938ZM186.475 0.892578L168.872 19.3496L188.662 51H182.954L165.352 22.6992L156.191 32.0986V51H151.201V0.892578H156.191V26.1855L180.425 0.892578H186.475Z" fill="#3237B6"/>
<path d="M43.877 51V0.619141H48.7305V51H43.877Z" fill="#9598D9"/>
<path d="M58.2666 8.54883V2.43066H63.0859V8.54883H58.2666ZM58.335 51V16.0342H63.1885V51H58.335Z" fill="#797EFF"/>
<path d="M67.9736 4.78906V0.926758H105.605V4.78906H89.4043V51H84.1748V4.78906H67.9736Z" fill="#383FF0"/>
<path d="M110.391 4.65234V0.960938H144.775V3.72949L113.74 47.3428H144.946L144.707 51H107.554V47.6504L138.247 4.65234H110.391Z" fill="black"/>
<path d="M213.647 0.0380859C216.974 0.0380859 219.891 0.516602 222.397 1.47363C224.927 2.43066 227.114 3.91178 228.96 5.91699C230.806 7.9222 232.196 10.5882 233.13 13.915C234.087 17.2191 234.565 21.1383 234.565 25.6729C234.565 34.7874 232.799 41.4297 229.268 45.5996C225.736 49.7695 220.518 51.8545 213.613 51.8545C210.264 51.8545 207.336 51.376 204.829 50.4189C202.323 49.4619 200.158 47.958 198.335 45.9072C196.512 43.8564 195.133 41.1449 194.199 37.7725C193.288 34.4001 192.832 30.3783 192.832 25.707C192.832 21.1497 193.299 17.2191 194.233 13.915C195.19 10.5882 196.58 7.9222 198.403 5.91699C200.226 3.889 202.391 2.40788 204.897 1.47363C207.427 0.516602 210.343 0.0380859 213.647 0.0380859ZM213.613 4.03711C211.243 4.03711 209.159 4.36751 207.358 5.02832C205.581 5.68913 204.1 6.62337 202.915 7.83105C201.753 9.01595 200.807 10.5199 200.078 12.3428C199.349 14.1657 198.825 16.1595 198.506 18.3242C198.21 20.4661 198.062 22.9157 198.062 25.6729C198.062 33.3519 199.246 38.9688 201.616 42.5234C203.986 46.0553 207.996 47.8213 213.647 47.8213C219.321 47.8213 223.343 46.0667 225.713 42.5576C228.083 39.0485 229.268 33.4316 229.268 25.707C229.268 22.9499 229.108 20.4889 228.789 18.3242C228.493 16.1595 227.969 14.1657 227.217 12.3428C226.488 10.5199 225.531 9.01595 224.346 7.83105C223.161 6.62337 221.668 5.68913 219.868 5.02832C218.091 4.36751 216.006 4.03711 213.613 4.03711Z" fill="#797EFF"/>
<path d="M253.091 51L238.906 1.0293H244.102C246.562 9.91602 248.602 17.4128 250.22 23.5195C251.838 29.6035 253.011 34.1266 253.74 37.0889C254.469 40.0283 254.971 41.9993 255.244 43.002C255.677 41.5664 256.281 39.5726 257.056 37.0205C257.853 34.4456 259.232 29.9567 261.191 23.5537C263.151 17.1279 265.441 9.61979 268.062 1.0293H271.616C272.778 5.33594 274.715 12.2744 277.427 21.8447C280.138 31.415 282.155 38.6611 283.477 43.583C284.57 39.5498 286.37 32.7139 288.877 23.0752C291.383 13.4137 293.343 6.0765 294.756 1.06348L299.507 1.0293L285.322 51H281.016C273.656 25.1602 269.816 11.6364 269.497 10.4287C269.224 11.363 268.791 12.7529 268.198 14.5986C267.629 16.4443 266.341 20.6029 264.336 27.0742C262.331 33.5456 259.87 41.5208 256.953 51H253.091Z" fill="#353AAE"/>
</svg>
